<mxfile host="app.diagrams.net" modified="2021-08-22T04:51:32.824Z" agent="5.0 (Windows NT 10.0; Win64; x64) AppleWebKit/537.36 (KHTML, like Gecko) Chrome/92.0.4515.159 Safari/537.36 Edg/92.0.902.78" etag="bR25c6e9yDFgsmx0whfW" version="14.9.8" type="github">
  <diagram id="gPBAJwZcKuSn6ALT_lkh" name="Page-1">
    <mxGraphModel dx="716" dy="372" grid="1" gridSize="10" guides="1" tooltips="1" connect="1" arrows="1" fold="1" page="1" pageScale="1" pageWidth="827" pageHeight="1169" math="0" shadow="0">
      <root>
        <mxCell id="0" />
        <mxCell id="1" parent="0" />
        <mxCell id="8O0__Qe_Hwb1zvDIcUSA-5" style="edgeStyle=orthogonalEdgeStyle;rounded=0;orthogonalLoop=1;jettySize=auto;html=1;exitX=0;exitY=0.25;exitDx=0;exitDy=0;entryX=1;entryY=1;entryDx=0;entryDy=0;startArrow=classic;startFill=1;" edge="1" parent="1" source="8O0__Qe_Hwb1zvDIcUSA-1" target="8O0__Qe_Hwb1zvDIcUSA-3">
          <mxGeometry relative="1" as="geometry" />
        </mxCell>
        <mxCell id="8O0__Qe_Hwb1zvDIcUSA-7" style="edgeStyle=orthogonalEdgeStyle;rounded=0;orthogonalLoop=1;jettySize=auto;html=1;exitX=0;exitY=0.75;exitDx=0;exitDy=0;entryX=1;entryY=0;entryDx=0;entryDy=0;startArrow=classic;startFill=1;" edge="1" parent="1" source="8O0__Qe_Hwb1zvDIcUSA-1" target="8O0__Qe_Hwb1zvDIcUSA-4">
          <mxGeometry relative="1" as="geometry" />
        </mxCell>
        <mxCell id="8O0__Qe_Hwb1zvDIcUSA-16" style="edgeStyle=orthogonalEdgeStyle;rounded=0;orthogonalLoop=1;jettySize=auto;html=1;exitX=0;exitY=0.5;exitDx=0;exitDy=0;entryX=1;entryY=0.5;entryDx=0;entryDy=0;startArrow=classic;startFill=1;strokeColor=#FF3333;" edge="1" parent="1" source="8O0__Qe_Hwb1zvDIcUSA-1" target="8O0__Qe_Hwb1zvDIcUSA-15">
          <mxGeometry relative="1" as="geometry" />
        </mxCell>
        <mxCell id="8O0__Qe_Hwb1zvDIcUSA-1" value="Robomaster A板" style="rounded=1;whiteSpace=wrap;html=1;" vertex="1" parent="1">
          <mxGeometry x="360" y="420" width="120" height="60" as="geometry" />
        </mxCell>
        <mxCell id="8O0__Qe_Hwb1zvDIcUSA-10" style="edgeStyle=orthogonalEdgeStyle;rounded=0;orthogonalLoop=1;jettySize=auto;html=1;exitX=0;exitY=0.5;exitDx=0;exitDy=0;entryX=1;entryY=0.5;entryDx=0;entryDy=0;" edge="1" parent="1" source="8O0__Qe_Hwb1zvDIcUSA-3" target="8O0__Qe_Hwb1zvDIcUSA-8">
          <mxGeometry relative="1" as="geometry" />
        </mxCell>
        <mxCell id="8O0__Qe_Hwb1zvDIcUSA-3" value="PA8" style="ellipse;whiteSpace=wrap;html=1;aspect=fixed;" vertex="1" parent="1">
          <mxGeometry x="310" y="410" width="30" height="30" as="geometry" />
        </mxCell>
        <mxCell id="8O0__Qe_Hwb1zvDIcUSA-11" style="edgeStyle=orthogonalEdgeStyle;rounded=0;orthogonalLoop=1;jettySize=auto;html=1;exitX=0;exitY=0.5;exitDx=0;exitDy=0;entryX=1;entryY=0.5;entryDx=0;entryDy=0;" edge="1" parent="1" source="8O0__Qe_Hwb1zvDIcUSA-4" target="8O0__Qe_Hwb1zvDIcUSA-9">
          <mxGeometry relative="1" as="geometry" />
        </mxCell>
        <mxCell id="8O0__Qe_Hwb1zvDIcUSA-4" value="PE14" style="ellipse;whiteSpace=wrap;html=1;aspect=fixed;" vertex="1" parent="1">
          <mxGeometry x="310" y="460" width="30" height="30" as="geometry" />
        </mxCell>
        <mxCell id="8O0__Qe_Hwb1zvDIcUSA-8" value="左2312s" style="rounded=0;whiteSpace=wrap;html=1;" vertex="1" parent="1">
          <mxGeometry x="130" y="405" width="60" height="40" as="geometry" />
        </mxCell>
        <mxCell id="8O0__Qe_Hwb1zvDIcUSA-9" value="右2312s" style="rounded=0;whiteSpace=wrap;html=1;" vertex="1" parent="1">
          <mxGeometry x="130" y="455" width="60" height="40" as="geometry" />
        </mxCell>
        <mxCell id="8O0__Qe_Hwb1zvDIcUSA-13" value="" style="endArrow=classic;startArrow=classic;html=1;exitX=1;exitY=0.75;exitDx=0;exitDy=0;entryX=0;entryY=0.5;entryDx=0;entryDy=0;fillColor=#f8cecc;strokeColor=#FF3333;" edge="1" parent="1" source="8O0__Qe_Hwb1zvDIcUSA-8" target="8O0__Qe_Hwb1zvDIcUSA-15">
          <mxGeometry width="50" height="50" relative="1" as="geometry">
            <mxPoint x="350" y="490" as="sourcePoint" />
            <mxPoint x="270" y="448" as="targetPoint" />
          </mxGeometry>
        </mxCell>
        <mxCell id="8O0__Qe_Hwb1zvDIcUSA-14" value="" style="endArrow=classic;startArrow=classic;html=1;exitX=1;exitY=0.25;exitDx=0;exitDy=0;entryX=0;entryY=0.5;entryDx=0;entryDy=0;strokeColor=#FF3333;" edge="1" parent="1" source="8O0__Qe_Hwb1zvDIcUSA-9" target="8O0__Qe_Hwb1zvDIcUSA-15">
          <mxGeometry width="50" height="50" relative="1" as="geometry">
            <mxPoint x="200" y="445" as="sourcePoint" />
            <mxPoint x="300" y="460" as="targetPoint" />
          </mxGeometry>
        </mxCell>
        <mxCell id="8O0__Qe_Hwb1zvDIcUSA-15" value="12v" style="ellipse;whiteSpace=wrap;html=1;aspect=fixed;" vertex="1" parent="1">
          <mxGeometry x="285" y="437.5" width="25" height="25" as="geometry" />
        </mxCell>
        <mxCell id="8O0__Qe_Hwb1zvDIcUSA-19" value="红色镭射" style="rounded=0;whiteSpace=wrap;html=1;" vertex="1" parent="1">
          <mxGeometry x="130" y="355" width="60" height="40" as="geometry" />
        </mxCell>
        <mxCell id="8O0__Qe_Hwb1zvDIcUSA-21" style="edgeStyle=orthogonalEdgeStyle;rounded=0;orthogonalLoop=1;jettySize=auto;html=1;exitX=0;exitY=0.5;exitDx=0;exitDy=0;entryX=1;entryY=0.5;entryDx=0;entryDy=0;startArrow=none;startFill=0;endArrow=classic;endFill=1;" edge="1" parent="1" source="8O0__Qe_Hwb1zvDIcUSA-20" target="8O0__Qe_Hwb1zvDIcUSA-19">
          <mxGeometry relative="1" as="geometry" />
        </mxCell>
        <mxCell id="8O0__Qe_Hwb1zvDIcUSA-22" style="edgeStyle=orthogonalEdgeStyle;rounded=0;orthogonalLoop=1;jettySize=auto;html=1;exitX=1;exitY=0.5;exitDx=0;exitDy=0;entryX=0;entryY=0;entryDx=0;entryDy=0;startArrow=classic;startFill=1;strokeColor=#000000;" edge="1" parent="1" source="8O0__Qe_Hwb1zvDIcUSA-20" target="8O0__Qe_Hwb1zvDIcUSA-1">
          <mxGeometry relative="1" as="geometry">
            <Array as="points">
              <mxPoint x="360" y="375" />
            </Array>
          </mxGeometry>
        </mxCell>
        <mxCell id="8O0__Qe_Hwb1zvDIcUSA-20" value="PA8" style="ellipse;whiteSpace=wrap;html=1;aspect=fixed;" vertex="1" parent="1">
          <mxGeometry x="310" y="360" width="30" height="30" as="geometry" />
        </mxCell>
        <mxCell id="8O0__Qe_Hwb1zvDIcUSA-24" value="Mini PC" style="rounded=0;whiteSpace=wrap;html=1;" vertex="1" parent="1">
          <mxGeometry x="130" y="300" width="60" height="40" as="geometry" />
        </mxCell>
        <mxCell id="8O0__Qe_Hwb1zvDIcUSA-26" style="edgeStyle=orthogonalEdgeStyle;rounded=0;orthogonalLoop=1;jettySize=auto;html=1;exitX=0;exitY=0.5;exitDx=0;exitDy=0;entryX=1;entryY=0.5;entryDx=0;entryDy=0;startArrow=classic;startFill=1;strokeColor=#000000;" edge="1" parent="1" source="8O0__Qe_Hwb1zvDIcUSA-25" target="8O0__Qe_Hwb1zvDIcUSA-24">
          <mxGeometry relative="1" as="geometry" />
        </mxCell>
        <mxCell id="8O0__Qe_Hwb1zvDIcUSA-27" style="edgeStyle=orthogonalEdgeStyle;rounded=0;orthogonalLoop=1;jettySize=auto;html=1;exitX=1;exitY=0.5;exitDx=0;exitDy=0;entryX=0.083;entryY=0;entryDx=0;entryDy=0;entryPerimeter=0;startArrow=classic;startFill=1;strokeColor=#000000;" edge="1" parent="1" source="8O0__Qe_Hwb1zvDIcUSA-25" target="8O0__Qe_Hwb1zvDIcUSA-1">
          <mxGeometry relative="1" as="geometry">
            <Array as="points">
              <mxPoint x="370" y="320" />
            </Array>
          </mxGeometry>
        </mxCell>
        <mxCell id="8O0__Qe_Hwb1zvDIcUSA-25" value="UART7" style="ellipse;whiteSpace=wrap;html=1;aspect=fixed;" vertex="1" parent="1">
          <mxGeometry x="295" y="297.5" width="45" height="45" as="geometry" />
        </mxCell>
        <mxCell id="8O0__Qe_Hwb1zvDIcUSA-29" style="edgeStyle=orthogonalEdgeStyle;rounded=0;orthogonalLoop=1;jettySize=auto;html=1;exitX=1;exitY=0.5;exitDx=0;exitDy=0;entryX=0.15;entryY=-0.017;entryDx=0;entryDy=0;entryPerimeter=0;startArrow=classic;startFill=1;strokeColor=#000000;" edge="1" parent="1" source="8O0__Qe_Hwb1zvDIcUSA-28" target="8O0__Qe_Hwb1zvDIcUSA-1">
          <mxGeometry relative="1" as="geometry">
            <Array as="points">
              <mxPoint x="378" y="263" />
            </Array>
          </mxGeometry>
        </mxCell>
        <mxCell id="8O0__Qe_Hwb1zvDIcUSA-28" value="UART6" style="ellipse;whiteSpace=wrap;html=1;aspect=fixed;" vertex="1" parent="1">
          <mxGeometry x="295" y="240" width="45" height="45" as="geometry" />
        </mxCell>
        <mxCell id="8O0__Qe_Hwb1zvDIcUSA-30" value="24&lt;br&gt;v" style="ellipse;whiteSpace=wrap;html=1;aspect=fixed;" vertex="1" parent="1">
          <mxGeometry x="414" y="610" width="25" height="25" as="geometry" />
        </mxCell>
        <mxCell id="8O0__Qe_Hwb1zvDIcUSA-32" style="edgeStyle=orthogonalEdgeStyle;rounded=0;orthogonalLoop=1;jettySize=auto;html=1;exitX=1;exitY=0.5;exitDx=0;exitDy=0;entryX=0;entryY=1;entryDx=0;entryDy=0;startArrow=classic;startFill=1;strokeColor=#000000;endArrow=classic;endFill=1;" edge="1" parent="1" source="8O0__Qe_Hwb1zvDIcUSA-31" target="8O0__Qe_Hwb1zvDIcUSA-1">
          <mxGeometry relative="1" as="geometry" />
        </mxCell>
        <mxCell id="8O0__Qe_Hwb1zvDIcUSA-31" value="PD12" style="ellipse;whiteSpace=wrap;html=1;aspect=fixed;" vertex="1" parent="1">
          <mxGeometry x="310" y="510" width="30" height="30" as="geometry" />
        </mxCell>
        <mxCell id="8O0__Qe_Hwb1zvDIcUSA-33" value="弹链微动开关" style="rounded=0;whiteSpace=wrap;html=1;" vertex="1" parent="1">
          <mxGeometry x="130" y="505" width="60" height="40" as="geometry" />
        </mxCell>
        <mxCell id="8O0__Qe_Hwb1zvDIcUSA-34" style="edgeStyle=orthogonalEdgeStyle;rounded=0;orthogonalLoop=1;jettySize=auto;html=1;entryX=1;entryY=0.5;entryDx=0;entryDy=0;startArrow=classic;startFill=1;endArrow=none;endFill=0;" edge="1" parent="1" target="8O0__Qe_Hwb1zvDIcUSA-33">
          <mxGeometry relative="1" as="geometry">
            <mxPoint x="310" y="525" as="sourcePoint" />
            <Array as="points">
              <mxPoint x="300" y="525" />
              <mxPoint x="300" y="525" />
            </Array>
          </mxGeometry>
        </mxCell>
      </root>
    </mxGraphModel>
  </diagram>
</mxfile>
